<mxfile host="app.diagrams.net" modified="2021-05-26T06:30:52.418Z" agent="5.0 (Macintosh; Intel Mac OS X 10_15_7) AppleWebKit/537.36 (KHTML, like Gecko) Chrome/90.0.4430.212 Safari/537.36" etag="K6aGMesYNnREfaJV8mBV" version="14.6.6" type="github">
  <diagram name="Page-1" id="97916047-d0de-89f5-080d-49f4d83e522f">
    <mxGraphModel dx="1207" dy="832" grid="1" gridSize="10" guides="1" tooltips="1" connect="1" arrows="1" fold="1" page="1" pageScale="1.5" pageWidth="1169" pageHeight="827" background="#ffffff" math="0" shadow="0">
      <root>
        <mxCell id="0" />
        <mxCell id="1" parent="0" />
        <mxCell id="0Y2pc2dYTrAK3fUMJ317-102" value="" style="rounded=1;whiteSpace=wrap;html=1;dashed=1;" vertex="1" parent="1">
          <mxGeometry x="40" y="820" width="800" height="345" as="geometry" />
        </mxCell>
        <mxCell id="0Y2pc2dYTrAK3fUMJ317-136" value="" style="rounded=1;whiteSpace=wrap;html=1;dashed=1;" vertex="1" parent="1">
          <mxGeometry x="210" y="940" width="145" height="200" as="geometry" />
        </mxCell>
        <mxCell id="0Y2pc2dYTrAK3fUMJ317-135" value="" style="rounded=1;whiteSpace=wrap;html=1;dashed=1;" vertex="1" parent="1">
          <mxGeometry x="45" y="940" width="145" height="200" as="geometry" />
        </mxCell>
        <mxCell id="0Y2pc2dYTrAK3fUMJ317-111" value="" style="rounded=1;whiteSpace=wrap;html=1;dashed=1;" vertex="1" parent="1">
          <mxGeometry x="40" y="1220" width="800" height="370" as="geometry" />
        </mxCell>
        <mxCell id="0Y2pc2dYTrAK3fUMJ317-134" value="" style="rounded=1;whiteSpace=wrap;html=1;dashed=1;" vertex="1" parent="1">
          <mxGeometry x="230" y="1350" width="170" height="165" as="geometry" />
        </mxCell>
        <mxCell id="0Y2pc2dYTrAK3fUMJ317-133" value="" style="rounded=1;whiteSpace=wrap;html=1;dashed=1;" vertex="1" parent="1">
          <mxGeometry x="50" y="1350" width="170" height="165" as="geometry" />
        </mxCell>
        <mxCell id="0Y2pc2dYTrAK3fUMJ317-83" value="" style="rounded=1;whiteSpace=wrap;html=1;dashed=1;" vertex="1" parent="1">
          <mxGeometry x="570" y="430" width="370" height="270" as="geometry" />
        </mxCell>
        <mxCell id="0Y2pc2dYTrAK3fUMJ317-87" style="edgeStyle=orthogonalEdgeStyle;rounded=0;orthogonalLoop=1;jettySize=auto;html=1;entryX=0;entryY=0.5;entryDx=0;entryDy=0;" edge="1" parent="1" target="0Y2pc2dYTrAK3fUMJ317-83">
          <mxGeometry relative="1" as="geometry">
            <mxPoint x="410" y="570" as="sourcePoint" />
            <Array as="points">
              <mxPoint x="410" y="565" />
            </Array>
          </mxGeometry>
        </mxCell>
        <mxCell id="0Y2pc2dYTrAK3fUMJ317-88" value="纸质合同归档财务" style="edgeLabel;html=1;align=center;verticalAlign=middle;resizable=0;points=[];" vertex="1" connectable="0" parent="0Y2pc2dYTrAK3fUMJ317-87">
          <mxGeometry x="0.0182" y="1" relative="1" as="geometry">
            <mxPoint as="offset" />
          </mxGeometry>
        </mxCell>
        <mxCell id="0Y2pc2dYTrAK3fUMJ317-103" style="edgeStyle=orthogonalEdgeStyle;rounded=0;orthogonalLoop=1;jettySize=auto;html=1;exitX=0.5;exitY=1;exitDx=0;exitDy=0;entryX=0.5;entryY=0;entryDx=0;entryDy=0;" edge="1" parent="1" source="0Y2pc2dYTrAK3fUMJ317-69" target="0Y2pc2dYTrAK3fUMJ317-102">
          <mxGeometry relative="1" as="geometry" />
        </mxCell>
        <mxCell id="0Y2pc2dYTrAK3fUMJ317-104" value="亮宅系统，工程部经理或店面经理，多了一个项目群聊" style="edgeLabel;html=1;align=center;verticalAlign=middle;resizable=0;points=[];" vertex="1" connectable="0" parent="0Y2pc2dYTrAK3fUMJ317-103">
          <mxGeometry x="-0.3176" y="-1" relative="1" as="geometry">
            <mxPoint as="offset" />
          </mxGeometry>
        </mxCell>
        <mxCell id="0Y2pc2dYTrAK3fUMJ317-69" value="" style="rounded=1;whiteSpace=wrap;html=1;dashed=1;" vertex="1" parent="1">
          <mxGeometry x="40" y="405" width="370" height="345" as="geometry" />
        </mxCell>
        <mxCell id="0Y2pc2dYTrAK3fUMJ317-97" style="edgeStyle=orthogonalEdgeStyle;rounded=0;orthogonalLoop=1;jettySize=auto;html=1;exitX=0.5;exitY=1;exitDx=0;exitDy=0;entryX=0.541;entryY=-0.1;entryDx=0;entryDy=0;entryPerimeter=0;" edge="1" parent="1" source="0Y2pc2dYTrAK3fUMJ317-66" target="0Y2pc2dYTrAK3fUMJ317-82">
          <mxGeometry relative="1" as="geometry" />
        </mxCell>
        <mxCell id="0Y2pc2dYTrAK3fUMJ317-99" value="亮宅系统自动记录跟进信息，自动流转到设计师" style="edgeLabel;html=1;align=center;verticalAlign=middle;resizable=0;points=[];" vertex="1" connectable="0" parent="0Y2pc2dYTrAK3fUMJ317-97">
          <mxGeometry x="-0.409" relative="1" as="geometry">
            <mxPoint as="offset" />
          </mxGeometry>
        </mxCell>
        <mxCell id="0Y2pc2dYTrAK3fUMJ317-66" value="" style="rounded=1;whiteSpace=wrap;html=1;dashed=1;" vertex="1" parent="1">
          <mxGeometry x="40" y="90" width="370" height="270" as="geometry" />
        </mxCell>
        <mxCell id="0Y2pc2dYTrAK3fUMJ317-57" style="edgeStyle=orthogonalEdgeStyle;rounded=0;orthogonalLoop=1;jettySize=auto;html=1;exitX=0.5;exitY=1;exitDx=0;exitDy=0;" edge="1" parent="1" source="0Y2pc2dYTrAK3fUMJ317-55">
          <mxGeometry relative="1" as="geometry">
            <mxPoint x="225" y="90" as="targetPoint" />
          </mxGeometry>
        </mxCell>
        <mxCell id="0Y2pc2dYTrAK3fUMJ317-55" value="新客户" style="rounded=1;whiteSpace=wrap;html=1;" vertex="1" parent="1">
          <mxGeometry x="165" y="20" width="120" height="40" as="geometry" />
        </mxCell>
        <mxCell id="0Y2pc2dYTrAK3fUMJ317-59" style="edgeStyle=orthogonalEdgeStyle;rounded=0;orthogonalLoop=1;jettySize=auto;html=1;exitX=0.5;exitY=1;exitDx=0;exitDy=0;entryX=0.5;entryY=0;entryDx=0;entryDy=0;" edge="1" parent="1" source="0Y2pc2dYTrAK3fUMJ317-56" target="0Y2pc2dYTrAK3fUMJ317-58">
          <mxGeometry relative="1" as="geometry" />
        </mxCell>
        <mxCell id="0Y2pc2dYTrAK3fUMJ317-56" value="“我的客户”中录入亮宅" style="rounded=1;whiteSpace=wrap;html=1;" vertex="1" parent="1">
          <mxGeometry x="70" y="150" width="120" height="40" as="geometry" />
        </mxCell>
        <mxCell id="0Y2pc2dYTrAK3fUMJ317-61" style="edgeStyle=orthogonalEdgeStyle;rounded=0;orthogonalLoop=1;jettySize=auto;html=1;exitX=0.5;exitY=1;exitDx=0;exitDy=0;entryX=0.5;entryY=0;entryDx=0;entryDy=0;" edge="1" parent="1" source="0Y2pc2dYTrAK3fUMJ317-58" target="0Y2pc2dYTrAK3fUMJ317-60">
          <mxGeometry relative="1" as="geometry" />
        </mxCell>
        <mxCell id="0Y2pc2dYTrAK3fUMJ317-63" value="跟进失败" style="edgeStyle=orthogonalEdgeStyle;rounded=0;orthogonalLoop=1;jettySize=auto;html=1;exitX=1;exitY=0.5;exitDx=0;exitDy=0;entryX=0;entryY=0.5;entryDx=0;entryDy=0;" edge="1" parent="1" source="0Y2pc2dYTrAK3fUMJ317-58" target="0Y2pc2dYTrAK3fUMJ317-62">
          <mxGeometry relative="1" as="geometry" />
        </mxCell>
        <mxCell id="0Y2pc2dYTrAK3fUMJ317-58" value="持续跟进记录" style="rounded=1;whiteSpace=wrap;html=1;" vertex="1" parent="1">
          <mxGeometry x="70" y="220" width="120" height="40" as="geometry" />
        </mxCell>
        <mxCell id="0Y2pc2dYTrAK3fUMJ317-60" value="意向，指定设计师" style="rounded=1;whiteSpace=wrap;html=1;" vertex="1" parent="1">
          <mxGeometry x="70" y="290" width="120" height="40" as="geometry" />
        </mxCell>
        <mxCell id="0Y2pc2dYTrAK3fUMJ317-65" style="edgeStyle=orthogonalEdgeStyle;rounded=0;orthogonalLoop=1;jettySize=auto;html=1;exitX=1;exitY=0.5;exitDx=0;exitDy=0;entryX=0;entryY=0.5;entryDx=0;entryDy=0;" edge="1" parent="1" source="0Y2pc2dYTrAK3fUMJ317-62" target="0Y2pc2dYTrAK3fUMJ317-64">
          <mxGeometry relative="1" as="geometry" />
        </mxCell>
        <mxCell id="0Y2pc2dYTrAK3fUMJ317-62" value="设为废单" style="rounded=1;whiteSpace=wrap;html=1;" vertex="1" parent="1">
          <mxGeometry x="280" y="220" width="120" height="40" as="geometry" />
        </mxCell>
        <mxCell id="0Y2pc2dYTrAK3fUMJ317-64" value="公海" style="rounded=1;whiteSpace=wrap;html=1;" vertex="1" parent="1">
          <mxGeometry x="440" y="220" width="120" height="40" as="geometry" />
        </mxCell>
        <mxCell id="0Y2pc2dYTrAK3fUMJ317-68" value="&lt;b&gt;家装顾问&lt;/b&gt;" style="text;html=1;strokeColor=none;fillColor=none;align=center;verticalAlign=middle;whiteSpace=wrap;rounded=0;dashed=1;" vertex="1" parent="1">
          <mxGeometry x="70" y="90" width="305" height="20" as="geometry" />
        </mxCell>
        <mxCell id="0Y2pc2dYTrAK3fUMJ317-73" style="edgeStyle=orthogonalEdgeStyle;rounded=0;orthogonalLoop=1;jettySize=auto;html=1;exitX=0.5;exitY=1;exitDx=0;exitDy=0;entryX=0.5;entryY=0;entryDx=0;entryDy=0;" edge="1" parent="1" source="0Y2pc2dYTrAK3fUMJ317-70" target="0Y2pc2dYTrAK3fUMJ317-72">
          <mxGeometry relative="1" as="geometry" />
        </mxCell>
        <mxCell id="0Y2pc2dYTrAK3fUMJ317-85" style="edgeStyle=orthogonalEdgeStyle;rounded=0;orthogonalLoop=1;jettySize=auto;html=1;exitX=1;exitY=0.5;exitDx=0;exitDy=0;entryX=0;entryY=0.5;entryDx=0;entryDy=0;" edge="1" parent="1" source="0Y2pc2dYTrAK3fUMJ317-70" target="0Y2pc2dYTrAK3fUMJ317-78">
          <mxGeometry relative="1" as="geometry" />
        </mxCell>
        <mxCell id="0Y2pc2dYTrAK3fUMJ317-70" value="上传量房照片" style="rounded=1;whiteSpace=wrap;html=1;" vertex="1" parent="1">
          <mxGeometry x="70" y="480" width="120" height="40" as="geometry" />
        </mxCell>
        <mxCell id="0Y2pc2dYTrAK3fUMJ317-76" style="edgeStyle=orthogonalEdgeStyle;rounded=0;orthogonalLoop=1;jettySize=auto;html=1;exitX=0.5;exitY=1;exitDx=0;exitDy=0;entryX=0.5;entryY=0;entryDx=0;entryDy=0;" edge="1" parent="1" source="0Y2pc2dYTrAK3fUMJ317-72" target="0Y2pc2dYTrAK3fUMJ317-74">
          <mxGeometry relative="1" as="geometry" />
        </mxCell>
        <mxCell id="0Y2pc2dYTrAK3fUMJ317-79" value="跟进失败" style="edgeStyle=orthogonalEdgeStyle;rounded=0;orthogonalLoop=1;jettySize=auto;html=1;exitX=1;exitY=0.5;exitDx=0;exitDy=0;" edge="1" parent="1" source="0Y2pc2dYTrAK3fUMJ317-72" target="0Y2pc2dYTrAK3fUMJ317-78">
          <mxGeometry relative="1" as="geometry" />
        </mxCell>
        <mxCell id="0Y2pc2dYTrAK3fUMJ317-72" value="做预算" style="rounded=1;whiteSpace=wrap;html=1;" vertex="1" parent="1">
          <mxGeometry x="70" y="550" width="120" height="40" as="geometry" />
        </mxCell>
        <mxCell id="0Y2pc2dYTrAK3fUMJ317-77" style="edgeStyle=orthogonalEdgeStyle;rounded=0;orthogonalLoop=1;jettySize=auto;html=1;exitX=0.5;exitY=1;exitDx=0;exitDy=0;entryX=0.5;entryY=0;entryDx=0;entryDy=0;" edge="1" parent="1" source="0Y2pc2dYTrAK3fUMJ317-74" target="0Y2pc2dYTrAK3fUMJ317-75">
          <mxGeometry relative="1" as="geometry" />
        </mxCell>
        <mxCell id="0Y2pc2dYTrAK3fUMJ317-74" value="签约设计单" style="rounded=1;whiteSpace=wrap;html=1;" vertex="1" parent="1">
          <mxGeometry x="70" y="620" width="120" height="40" as="geometry" />
        </mxCell>
        <mxCell id="0Y2pc2dYTrAK3fUMJ317-107" style="edgeStyle=orthogonalEdgeStyle;rounded=0;orthogonalLoop=1;jettySize=auto;html=1;exitX=1;exitY=0.5;exitDx=0;exitDy=0;" edge="1" parent="1" source="0Y2pc2dYTrAK3fUMJ317-75" target="0Y2pc2dYTrAK3fUMJ317-106">
          <mxGeometry relative="1" as="geometry" />
        </mxCell>
        <mxCell id="0Y2pc2dYTrAK3fUMJ317-75" value="签约施工合同" style="rounded=1;whiteSpace=wrap;html=1;" vertex="1" parent="1">
          <mxGeometry x="70" y="690" width="120" height="40" as="geometry" />
        </mxCell>
        <mxCell id="0Y2pc2dYTrAK3fUMJ317-78" value="设为废单" style="rounded=1;whiteSpace=wrap;html=1;" vertex="1" parent="1">
          <mxGeometry x="280" y="510" width="120" height="40" as="geometry" />
        </mxCell>
        <mxCell id="0Y2pc2dYTrAK3fUMJ317-80" style="edgeStyle=orthogonalEdgeStyle;rounded=0;orthogonalLoop=1;jettySize=auto;html=1;exitX=1;exitY=0.5;exitDx=0;exitDy=0;entryX=0.5;entryY=1;entryDx=0;entryDy=0;" edge="1" parent="1" target="0Y2pc2dYTrAK3fUMJ317-64" source="0Y2pc2dYTrAK3fUMJ317-78">
          <mxGeometry relative="1" as="geometry">
            <mxPoint x="400" y="510" as="sourcePoint" />
            <mxPoint x="490" y="280" as="targetPoint" />
            <Array as="points">
              <mxPoint x="500" y="530" />
            </Array>
          </mxGeometry>
        </mxCell>
        <mxCell id="0Y2pc2dYTrAK3fUMJ317-82" value="&lt;b&gt;设计师&lt;/b&gt;" style="text;html=1;strokeColor=none;fillColor=none;align=center;verticalAlign=middle;whiteSpace=wrap;rounded=0;dashed=1;" vertex="1" parent="1">
          <mxGeometry x="60" y="405" width="305" height="20" as="geometry" />
        </mxCell>
        <mxCell id="0Y2pc2dYTrAK3fUMJ317-92" style="edgeStyle=orthogonalEdgeStyle;rounded=0;orthogonalLoop=1;jettySize=auto;html=1;exitX=0.5;exitY=1;exitDx=0;exitDy=0;entryX=0.5;entryY=0;entryDx=0;entryDy=0;" edge="1" parent="1" source="0Y2pc2dYTrAK3fUMJ317-84" target="0Y2pc2dYTrAK3fUMJ317-89">
          <mxGeometry relative="1" as="geometry" />
        </mxCell>
        <mxCell id="0Y2pc2dYTrAK3fUMJ317-84" value="录入合同" style="rounded=1;whiteSpace=wrap;html=1;" vertex="1" parent="1">
          <mxGeometry x="590" y="520" width="120" height="40" as="geometry" />
        </mxCell>
        <mxCell id="0Y2pc2dYTrAK3fUMJ317-86" value="&lt;b&gt;财务&lt;/b&gt;" style="text;html=1;strokeColor=none;fillColor=none;align=center;verticalAlign=middle;whiteSpace=wrap;rounded=0;dashed=1;" vertex="1" parent="1">
          <mxGeometry x="600" y="430" width="305" height="20" as="geometry" />
        </mxCell>
        <mxCell id="0Y2pc2dYTrAK3fUMJ317-89" value="客户付款，录入流水" style="rounded=1;whiteSpace=wrap;html=1;" vertex="1" parent="1">
          <mxGeometry x="590" y="595" width="120" height="40" as="geometry" />
        </mxCell>
        <mxCell id="0Y2pc2dYTrAK3fUMJ317-90" value="亮宅入口：工作台--&amp;gt;我的客户" style="rounded=1;whiteSpace=wrap;html=1;" vertex="1" parent="1">
          <mxGeometry x="110" y="425" width="220" height="15" as="geometry" />
        </mxCell>
        <mxCell id="0Y2pc2dYTrAK3fUMJ317-93" style="edgeStyle=orthogonalEdgeStyle;rounded=0;orthogonalLoop=1;jettySize=auto;html=1;exitX=0.5;exitY=1;exitDx=0;exitDy=0;entryX=0.5;entryY=0;entryDx=0;entryDy=0;" edge="1" parent="1" source="0Y2pc2dYTrAK3fUMJ317-94" target="0Y2pc2dYTrAK3fUMJ317-95">
          <mxGeometry relative="1" as="geometry" />
        </mxCell>
        <mxCell id="0Y2pc2dYTrAK3fUMJ317-101" value="" style="edgeStyle=orthogonalEdgeStyle;rounded=0;orthogonalLoop=1;jettySize=auto;html=1;" edge="1" parent="1" source="0Y2pc2dYTrAK3fUMJ317-94" target="0Y2pc2dYTrAK3fUMJ317-86">
          <mxGeometry relative="1" as="geometry" />
        </mxCell>
        <mxCell id="0Y2pc2dYTrAK3fUMJ317-94" value="处理待付款申请单" style="rounded=1;whiteSpace=wrap;html=1;" vertex="1" parent="1">
          <mxGeometry x="800" y="520" width="120" height="40" as="geometry" />
        </mxCell>
        <mxCell id="0Y2pc2dYTrAK3fUMJ317-95" value="完成付款，录入流水信息" style="rounded=1;whiteSpace=wrap;html=1;" vertex="1" parent="1">
          <mxGeometry x="800" y="595" width="120" height="40" as="geometry" />
        </mxCell>
        <mxCell id="0Y2pc2dYTrAK3fUMJ317-96" value="亮宅入口：工作台--&amp;gt;全部客户" style="rounded=1;whiteSpace=wrap;html=1;" vertex="1" parent="1">
          <mxGeometry x="570" y="500" width="162.5" height="20" as="geometry" />
        </mxCell>
        <mxCell id="0Y2pc2dYTrAK3fUMJ317-98" value="亮宅入口：工作台--&amp;gt;我的客户" style="rounded=1;whiteSpace=wrap;html=1;" vertex="1" parent="1">
          <mxGeometry x="120" y="110" width="220" height="20" as="geometry" />
        </mxCell>
        <mxCell id="0Y2pc2dYTrAK3fUMJ317-100" value="亮宅入口：工作台--&amp;gt;待付款" style="rounded=1;whiteSpace=wrap;html=1;" vertex="1" parent="1">
          <mxGeometry x="777.5" y="500" width="162.5" height="20" as="geometry" />
        </mxCell>
        <mxCell id="0Y2pc2dYTrAK3fUMJ317-112" value="拉入项目经理，项目经理自动在亮宅有该项目" style="edgeStyle=orthogonalEdgeStyle;rounded=0;orthogonalLoop=1;jettySize=auto;html=1;exitX=0.5;exitY=1;exitDx=0;exitDy=0;entryX=0.5;entryY=0;entryDx=0;entryDy=0;" edge="1" parent="1" source="0Y2pc2dYTrAK3fUMJ317-102" target="0Y2pc2dYTrAK3fUMJ317-111">
          <mxGeometry relative="1" as="geometry" />
        </mxCell>
        <mxCell id="0Y2pc2dYTrAK3fUMJ317-105" value="指定项目经理（新项目，自动提醒店面经理指定项目经理）" style="rounded=1;whiteSpace=wrap;html=1;" vertex="1" parent="1">
          <mxGeometry x="365" y="832.5" width="400" height="30" as="geometry" />
        </mxCell>
        <mxCell id="0Y2pc2dYTrAK3fUMJ317-106" value="创建项目，指定工程部经理或店面经理" style="rounded=1;whiteSpace=wrap;html=1;" vertex="1" parent="1">
          <mxGeometry x="240" y="690" width="120" height="40" as="geometry" />
        </mxCell>
        <mxCell id="0Y2pc2dYTrAK3fUMJ317-108" value="&lt;b&gt;工程部经理/店面经理&lt;/b&gt;" style="text;html=1;strokeColor=none;fillColor=none;align=center;verticalAlign=middle;whiteSpace=wrap;rounded=0;dashed=1;" vertex="1" parent="1">
          <mxGeometry x="70" y="820" width="305" height="20" as="geometry" />
        </mxCell>
        <mxCell id="0Y2pc2dYTrAK3fUMJ317-109" value="亮宅入口：项目群聊--&amp;gt;项目" style="rounded=1;whiteSpace=wrap;html=1;" vertex="1" parent="1">
          <mxGeometry x="115" y="840" width="220" height="15" as="geometry" />
        </mxCell>
        <mxCell id="0Y2pc2dYTrAK3fUMJ317-116" style="edgeStyle=orthogonalEdgeStyle;rounded=0;orthogonalLoop=1;jettySize=auto;html=1;exitX=0.5;exitY=1;exitDx=0;exitDy=0;entryX=0.5;entryY=0;entryDx=0;entryDy=0;" edge="1" parent="1" source="0Y2pc2dYTrAK3fUMJ317-110" target="0Y2pc2dYTrAK3fUMJ317-113">
          <mxGeometry relative="1" as="geometry" />
        </mxCell>
        <mxCell id="0Y2pc2dYTrAK3fUMJ317-110" value="待审核任务" style="rounded=1;whiteSpace=wrap;html=1;" vertex="1" parent="1">
          <mxGeometry x="60" y="950" width="120" height="40" as="geometry" />
        </mxCell>
        <mxCell id="0Y2pc2dYTrAK3fUMJ317-117" style="edgeStyle=orthogonalEdgeStyle;rounded=0;orthogonalLoop=1;jettySize=auto;html=1;exitX=0.5;exitY=1;exitDx=0;exitDy=0;entryX=0.5;entryY=0;entryDx=0;entryDy=0;" edge="1" parent="1" source="0Y2pc2dYTrAK3fUMJ317-113" target="0Y2pc2dYTrAK3fUMJ317-114">
          <mxGeometry relative="1" as="geometry" />
        </mxCell>
        <mxCell id="0Y2pc2dYTrAK3fUMJ317-113" value="审核任务" style="rounded=1;whiteSpace=wrap;html=1;" vertex="1" parent="1">
          <mxGeometry x="60" y="1020" width="120" height="40" as="geometry" />
        </mxCell>
        <mxCell id="0Y2pc2dYTrAK3fUMJ317-114" value="待业主评价" style="rounded=1;whiteSpace=wrap;html=1;" vertex="1" parent="1">
          <mxGeometry x="60" y="1090" width="120" height="40" as="geometry" />
        </mxCell>
        <mxCell id="0Y2pc2dYTrAK3fUMJ317-118" value="&lt;b&gt;工程部经理/店面经理&lt;/b&gt;" style="text;html=1;strokeColor=none;fillColor=none;align=center;verticalAlign=middle;whiteSpace=wrap;rounded=0;dashed=1;" vertex="1" parent="1">
          <mxGeometry x="72.5" y="1230" width="305" height="20" as="geometry" />
        </mxCell>
        <mxCell id="0Y2pc2dYTrAK3fUMJ317-119" value="亮宅入口：项目群聊--&amp;gt;项目" style="rounded=1;whiteSpace=wrap;html=1;" vertex="1" parent="1">
          <mxGeometry x="115" y="1250" width="220" height="15" as="geometry" />
        </mxCell>
        <mxCell id="0Y2pc2dYTrAK3fUMJ317-121" value="每周周计划&lt;br&gt;自动发送业主群聊并@业主" style="rounded=1;whiteSpace=wrap;html=1;dashed=1;" vertex="1" parent="1">
          <mxGeometry x="60" y="1280" width="150" height="50" as="geometry" />
        </mxCell>
        <mxCell id="0Y2pc2dYTrAK3fUMJ317-125" style="edgeStyle=orthogonalEdgeStyle;rounded=0;orthogonalLoop=1;jettySize=auto;html=1;exitX=0;exitY=0.5;exitDx=0;exitDy=0;" edge="1" parent="1" source="0Y2pc2dYTrAK3fUMJ317-123">
          <mxGeometry relative="1" as="geometry">
            <mxPoint x="60" y="930" as="targetPoint" />
            <Array as="points">
              <mxPoint x="10" y="1390" />
              <mxPoint x="10" y="930" />
            </Array>
          </mxGeometry>
        </mxCell>
        <mxCell id="0Y2pc2dYTrAK3fUMJ317-123" value="执行任务&lt;br&gt;上传任务照片" style="rounded=1;whiteSpace=wrap;html=1;" vertex="1" parent="1">
          <mxGeometry x="60" y="1370" width="120" height="40" as="geometry" />
        </mxCell>
        <mxCell id="0Y2pc2dYTrAK3fUMJ317-128" style="edgeStyle=orthogonalEdgeStyle;rounded=0;orthogonalLoop=1;jettySize=auto;html=1;exitX=1;exitY=0.5;exitDx=0;exitDy=0;" edge="1" parent="1" source="0Y2pc2dYTrAK3fUMJ317-126" target="0Y2pc2dYTrAK3fUMJ317-127">
          <mxGeometry relative="1" as="geometry">
            <Array as="points">
              <mxPoint x="390" y="970" />
              <mxPoint x="390" y="1390" />
            </Array>
          </mxGeometry>
        </mxCell>
        <mxCell id="0Y2pc2dYTrAK3fUMJ317-126" value="发起巡检" style="rounded=1;whiteSpace=wrap;html=1;" vertex="1" parent="1">
          <mxGeometry x="222.5" y="950" width="120" height="40" as="geometry" />
        </mxCell>
        <mxCell id="0Y2pc2dYTrAK3fUMJ317-130" style="edgeStyle=orthogonalEdgeStyle;rounded=0;orthogonalLoop=1;jettySize=auto;html=1;exitX=0.5;exitY=1;exitDx=0;exitDy=0;entryX=0.5;entryY=0;entryDx=0;entryDy=0;" edge="1" parent="1" source="0Y2pc2dYTrAK3fUMJ317-127" target="0Y2pc2dYTrAK3fUMJ317-129">
          <mxGeometry relative="1" as="geometry" />
        </mxCell>
        <mxCell id="0Y2pc2dYTrAK3fUMJ317-127" value="处理巡检" style="rounded=1;whiteSpace=wrap;html=1;" vertex="1" parent="1">
          <mxGeometry x="245" y="1370" width="120" height="40" as="geometry" />
        </mxCell>
        <mxCell id="0Y2pc2dYTrAK3fUMJ317-131" style="edgeStyle=orthogonalEdgeStyle;rounded=0;orthogonalLoop=1;jettySize=auto;html=1;exitX=1;exitY=0.5;exitDx=0;exitDy=0;entryX=1;entryY=0.5;entryDx=0;entryDy=0;" edge="1" parent="1" source="0Y2pc2dYTrAK3fUMJ317-129" target="0Y2pc2dYTrAK3fUMJ317-132">
          <mxGeometry relative="1" as="geometry">
            <Array as="points">
              <mxPoint x="430" y="1460" />
              <mxPoint x="430" y="1050" />
            </Array>
          </mxGeometry>
        </mxCell>
        <mxCell id="0Y2pc2dYTrAK3fUMJ317-129" value="上传处理结果" style="rounded=1;whiteSpace=wrap;html=1;" vertex="1" parent="1">
          <mxGeometry x="245" y="1440" width="120" height="40" as="geometry" />
        </mxCell>
        <mxCell id="0Y2pc2dYTrAK3fUMJ317-132" value="巡检结果审核" style="rounded=1;whiteSpace=wrap;html=1;" vertex="1" parent="1">
          <mxGeometry x="222.5" y="1030" width="120" height="40" as="geometry" />
        </mxCell>
        <mxCell id="0Y2pc2dYTrAK3fUMJ317-138" value="" style="rounded=1;whiteSpace=wrap;html=1;dashed=1;" vertex="1" parent="1">
          <mxGeometry x="455" y="1230" width="170" height="350" as="geometry" />
        </mxCell>
        <mxCell id="0Y2pc2dYTrAK3fUMJ317-145" style="edgeStyle=orthogonalEdgeStyle;rounded=0;orthogonalLoop=1;jettySize=auto;html=1;exitX=0.5;exitY=1;exitDx=0;exitDy=0;entryX=0.5;entryY=0;entryDx=0;entryDy=0;" edge="1" parent="1" source="0Y2pc2dYTrAK3fUMJ317-139" target="0Y2pc2dYTrAK3fUMJ317-140">
          <mxGeometry relative="1" as="geometry" />
        </mxCell>
        <mxCell id="0Y2pc2dYTrAK3fUMJ317-139" value="材料申请" style="rounded=1;whiteSpace=wrap;html=1;" vertex="1" parent="1">
          <mxGeometry x="480" y="1240" width="120" height="30" as="geometry" />
        </mxCell>
        <mxCell id="0Y2pc2dYTrAK3fUMJ317-147" style="edgeStyle=orthogonalEdgeStyle;rounded=0;orthogonalLoop=1;jettySize=auto;html=1;exitX=0.5;exitY=1;exitDx=0;exitDy=0;entryX=0.5;entryY=0;entryDx=0;entryDy=0;" edge="1" parent="1" source="0Y2pc2dYTrAK3fUMJ317-140" target="0Y2pc2dYTrAK3fUMJ317-141">
          <mxGeometry relative="1" as="geometry" />
        </mxCell>
        <mxCell id="0Y2pc2dYTrAK3fUMJ317-140" value="材料员审批下单" style="rounded=1;whiteSpace=wrap;html=1;" vertex="1" parent="1">
          <mxGeometry x="480" y="1300" width="120" height="30" as="geometry" />
        </mxCell>
        <mxCell id="0Y2pc2dYTrAK3fUMJ317-148" style="edgeStyle=orthogonalEdgeStyle;rounded=0;orthogonalLoop=1;jettySize=auto;html=1;exitX=0.5;exitY=1;exitDx=0;exitDy=0;entryX=0.5;entryY=0;entryDx=0;entryDy=0;" edge="1" parent="1" source="0Y2pc2dYTrAK3fUMJ317-141" target="0Y2pc2dYTrAK3fUMJ317-142">
          <mxGeometry relative="1" as="geometry" />
        </mxCell>
        <mxCell id="0Y2pc2dYTrAK3fUMJ317-141" value="供应商确认" style="rounded=1;whiteSpace=wrap;html=1;" vertex="1" parent="1">
          <mxGeometry x="480" y="1360" width="120" height="30" as="geometry" />
        </mxCell>
        <mxCell id="0Y2pc2dYTrAK3fUMJ317-149" style="edgeStyle=orthogonalEdgeStyle;rounded=0;orthogonalLoop=1;jettySize=auto;html=1;exitX=0.5;exitY=1;exitDx=0;exitDy=0;entryX=0.5;entryY=0;entryDx=0;entryDy=0;" edge="1" parent="1" source="0Y2pc2dYTrAK3fUMJ317-142" target="0Y2pc2dYTrAK3fUMJ317-143">
          <mxGeometry relative="1" as="geometry" />
        </mxCell>
        <mxCell id="0Y2pc2dYTrAK3fUMJ317-142" value="供应商派单" style="rounded=1;whiteSpace=wrap;html=1;" vertex="1" parent="1">
          <mxGeometry x="480" y="1420" width="120" height="30" as="geometry" />
        </mxCell>
        <mxCell id="0Y2pc2dYTrAK3fUMJ317-150" style="edgeStyle=orthogonalEdgeStyle;rounded=0;orthogonalLoop=1;jettySize=auto;html=1;exitX=0.5;exitY=1;exitDx=0;exitDy=0;entryX=0.5;entryY=0;entryDx=0;entryDy=0;" edge="1" parent="1" source="0Y2pc2dYTrAK3fUMJ317-143" target="0Y2pc2dYTrAK3fUMJ317-144">
          <mxGeometry relative="1" as="geometry" />
        </mxCell>
        <mxCell id="0Y2pc2dYTrAK3fUMJ317-143" value="配送员送货" style="rounded=1;whiteSpace=wrap;html=1;" vertex="1" parent="1">
          <mxGeometry x="480" y="1480" width="120" height="30" as="geometry" />
        </mxCell>
        <mxCell id="0Y2pc2dYTrAK3fUMJ317-144" value="项目经理签收" style="rounded=1;whiteSpace=wrap;html=1;" vertex="1" parent="1">
          <mxGeometry x="480" y="1540" width="120" height="30" as="geometry" />
        </mxCell>
        <mxCell id="0Y2pc2dYTrAK3fUMJ317-151" value="" style="rounded=1;whiteSpace=wrap;html=1;dashed=1;" vertex="1" parent="1">
          <mxGeometry x="650" y="1230" width="170" height="350" as="geometry" />
        </mxCell>
        <mxCell id="0Y2pc2dYTrAK3fUMJ317-152" value="款项申请" style="rounded=1;whiteSpace=wrap;html=1;" vertex="1" parent="1">
          <mxGeometry x="680" y="1235" width="120" height="30" as="geometry" />
        </mxCell>
        <mxCell id="0Y2pc2dYTrAK3fUMJ317-153" value="款项审核通过" style="rounded=1;whiteSpace=wrap;html=1;" vertex="1" parent="1">
          <mxGeometry x="680" y="1300" width="120" height="30" as="geometry" />
        </mxCell>
        <mxCell id="0Y2pc2dYTrAK3fUMJ317-154" value="款项待付款" style="rounded=1;whiteSpace=wrap;html=1;" vertex="1" parent="1">
          <mxGeometry x="680" y="1360" width="120" height="30" as="geometry" />
        </mxCell>
        <mxCell id="0Y2pc2dYTrAK3fUMJ317-155" value="款项已付款" style="rounded=1;whiteSpace=wrap;html=1;" vertex="1" parent="1">
          <mxGeometry x="680" y="1420" width="120" height="30" as="geometry" />
        </mxCell>
        <mxCell id="0Y2pc2dYTrAK3fUMJ317-156" value="完成" style="rounded=1;whiteSpace=wrap;html=1;" vertex="1" parent="1">
          <mxGeometry x="680" y="1480" width="120" height="30" as="geometry" />
        </mxCell>
      </root>
    </mxGraphModel>
  </diagram>
</mxfile>
